<?xml version="1.0" encoding="utf-8"?>
<svg xmlns="http://www.w3.org/2000/svg" xmlns:xlink="http://www.w3.org/1999/xlink" width="600" height="400" viewBox="0 0 2400 1600">
<defs>
  <clipPath id="clip480">
    <rect x="0" y="0" width="2400" height="1600"/>
  </clipPath>
</defs>
<path clip-path="url(#clip480)" d="
M0 1600 L2400 1600 L2400 0 L0 0  Z
  " fill="#ffffff" fill-rule="evenodd" fill-opacity="1"/>
<defs>
  <clipPath id="clip481">
    <rect x="480" y="0" width="1681" height="1600"/>
  </clipPath>
</defs>
<path clip-path="url(#clip480)" d="
M156.112 1423.18 L2352.76 1423.18 L2352.76 47.2441 L156.112 47.2441  Z
  " fill="#ffffff" fill-rule="evenodd" fill-opacity="1"/>
<defs>
  <clipPath id="clip482">
    <rect x="156" y="47" width="2198" height="1377"/>
  </clipPath>
</defs>
<polyline clip-path="url(#clip482)" style="stroke:#000000; stroke-linecap:butt; stroke-linejoin:round; stroke-width:2; stroke-opacity:0.1; fill:none" points="
  156.112,1423.18 156.112,47.2441 
  "/>
<polyline clip-path="url(#clip482)" style="stroke:#000000; stroke-linecap:butt; stroke-linejoin:round; stroke-width:2; stroke-opacity:0.1; fill:none" points="
  522.219,1423.18 522.219,47.2441 
  "/>
<polyline clip-path="url(#clip482)" style="stroke:#000000; stroke-linecap:butt; stroke-linejoin:round; stroke-width:2; stroke-opacity:0.1; fill:none" points="
  888.327,1423.18 888.327,47.2441 
  "/>
<polyline clip-path="url(#clip482)" style="stroke:#000000; stroke-linecap:butt; stroke-linejoin:round; stroke-width:2; stroke-opacity:0.1; fill:none" points="
  1254.43,1423.18 1254.43,47.2441 
  "/>
<polyline clip-path="url(#clip482)" style="stroke:#000000; stroke-linecap:butt; stroke-linejoin:round; stroke-width:2; stroke-opacity:0.1; fill:none" points="
  1620.54,1423.18 1620.54,47.2441 
  "/>
<polyline clip-path="url(#clip482)" style="stroke:#000000; stroke-linecap:butt; stroke-linejoin:round; stroke-width:2; stroke-opacity:0.1; fill:none" points="
  1986.65,1423.18 1986.65,47.2441 
  "/>
<polyline clip-path="url(#clip482)" style="stroke:#000000; stroke-linecap:butt; stroke-linejoin:round; stroke-width:2; stroke-opacity:0.1; fill:none" points="
  2352.76,1423.18 2352.76,47.2441 
  "/>
<polyline clip-path="url(#clip480)" style="stroke:#000000; stroke-linecap:butt; stroke-linejoin:round; stroke-width:4; stroke-opacity:1; fill:none" points="
  156.112,1423.18 2352.76,1423.18 
  "/>
<polyline clip-path="url(#clip480)" style="stroke:#000000; stroke-linecap:butt; stroke-linejoin:round; stroke-width:4; stroke-opacity:1; fill:none" points="
  156.112,1423.18 156.112,1404.28 
  "/>
<polyline clip-path="url(#clip480)" style="stroke:#000000; stroke-linecap:butt; stroke-linejoin:round; stroke-width:4; stroke-opacity:1; fill:none" points="
  522.219,1423.18 522.219,1404.28 
  "/>
<polyline clip-path="url(#clip480)" style="stroke:#000000; stroke-linecap:butt; stroke-linejoin:round; stroke-width:4; stroke-opacity:1; fill:none" points="
  888.327,1423.18 888.327,1404.28 
  "/>
<polyline clip-path="url(#clip480)" style="stroke:#000000; stroke-linecap:butt; stroke-linejoin:round; stroke-width:4; stroke-opacity:1; fill:none" points="
  1254.43,1423.18 1254.43,1404.28 
  "/>
<polyline clip-path="url(#clip480)" style="stroke:#000000; stroke-linecap:butt; stroke-linejoin:round; stroke-width:4; stroke-opacity:1; fill:none" points="
  1620.54,1423.18 1620.54,1404.28 
  "/>
<polyline clip-path="url(#clip480)" style="stroke:#000000; stroke-linecap:butt; stroke-linejoin:round; stroke-width:4; stroke-opacity:1; fill:none" points="
  1986.65,1423.18 1986.65,1404.28 
  "/>
<polyline clip-path="url(#clip480)" style="stroke:#000000; stroke-linecap:butt; stroke-linejoin:round; stroke-width:4; stroke-opacity:1; fill:none" points="
  2352.76,1423.18 2352.76,1404.28 
  "/>
<path clip-path="url(#clip480)" d="M156.112 1454.1 Q152.501 1454.1 150.672 1457.66 Q148.867 1461.2 148.867 1468.33 Q148.867 1475.44 150.672 1479.01 Q152.501 1482.55 156.112 1482.55 Q159.746 1482.55 161.552 1479.01 Q163.381 1475.44 163.381 1468.33 Q163.381 1461.2 161.552 1457.66 Q159.746 1454.1 156.112 1454.1 M156.112 1450.39 Q161.922 1450.39 164.978 1455 Q168.057 1459.58 168.057 1468.33 Q168.057 1477.06 164.978 1481.67 Q161.922 1486.25 156.112 1486.25 Q150.302 1486.25 147.223 1481.67 Q144.168 1477.06 144.168 1468.33 Q144.168 1459.58 147.223 1455 Q150.302 1450.39 156.112 1450.39 Z" fill="#000000" fill-rule="evenodd" fill-opacity="1" /><path clip-path="url(#clip480)" d="M496.907 1481.64 L504.546 1481.64 L504.546 1455.28 L496.236 1456.95 L496.236 1452.69 L504.5 1451.02 L509.176 1451.02 L509.176 1481.64 L516.814 1481.64 L516.814 1485.58 L496.907 1485.58 L496.907 1481.64 Z" fill="#000000" fill-rule="evenodd" fill-opacity="1" /><path clip-path="url(#clip480)" d="M536.259 1454.1 Q532.648 1454.1 530.819 1457.66 Q529.013 1461.2 529.013 1468.33 Q529.013 1475.44 530.819 1479.01 Q532.648 1482.55 536.259 1482.55 Q539.893 1482.55 541.698 1479.01 Q543.527 1475.44 543.527 1468.33 Q543.527 1461.2 541.698 1457.66 Q539.893 1454.1 536.259 1454.1 M536.259 1450.39 Q542.069 1450.39 545.124 1455 Q548.203 1459.58 548.203 1468.33 Q548.203 1477.06 545.124 1481.67 Q542.069 1486.25 536.259 1486.25 Q530.449 1486.25 527.37 1481.67 Q524.314 1477.06 524.314 1468.33 Q524.314 1459.58 527.37 1455 Q530.449 1450.39 536.259 1450.39 Z" fill="#000000" fill-rule="evenodd" fill-opacity="1" /><path clip-path="url(#clip480)" d="M867.1 1481.64 L883.419 1481.64 L883.419 1485.58 L861.475 1485.58 L861.475 1481.64 Q864.137 1478.89 868.72 1474.26 Q873.327 1469.61 874.507 1468.27 Q876.753 1465.74 877.632 1464.01 Q878.535 1462.25 878.535 1460.56 Q878.535 1457.8 876.591 1456.07 Q874.669 1454.33 871.568 1454.33 Q869.368 1454.33 866.915 1455.09 Q864.484 1455.86 861.706 1457.41 L861.706 1452.69 Q864.531 1451.55 866.984 1450.97 Q869.438 1450.39 871.475 1450.39 Q876.845 1450.39 880.04 1453.08 Q883.234 1455.77 883.234 1460.26 Q883.234 1462.39 882.424 1464.31 Q881.637 1466.2 879.53 1468.8 Q878.952 1469.47 875.85 1472.69 Q872.748 1475.88 867.1 1481.64 Z" fill="#000000" fill-rule="evenodd" fill-opacity="1" /><path clip-path="url(#clip480)" d="M903.234 1454.1 Q899.623 1454.1 897.794 1457.66 Q895.989 1461.2 895.989 1468.33 Q895.989 1475.44 897.794 1479.01 Q899.623 1482.55 903.234 1482.55 Q906.868 1482.55 908.674 1479.01 Q910.503 1475.44 910.503 1468.33 Q910.503 1461.2 908.674 1457.66 Q906.868 1454.1 903.234 1454.1 M903.234 1450.39 Q909.044 1450.39 912.1 1455 Q915.178 1459.58 915.178 1468.33 Q915.178 1477.06 912.1 1481.67 Q909.044 1486.25 903.234 1486.25 Q897.424 1486.25 894.345 1481.67 Q891.29 1477.06 891.29 1468.33 Q891.29 1459.58 894.345 1455 Q897.424 1450.39 903.234 1450.39 Z" fill="#000000" fill-rule="evenodd" fill-opacity="1" /><path clip-path="url(#clip480)" d="M1243.28 1466.95 Q1246.63 1467.66 1248.51 1469.93 Q1250.41 1472.2 1250.41 1475.53 Q1250.41 1480.65 1246.89 1483.45 Q1243.37 1486.25 1236.89 1486.25 Q1234.71 1486.25 1232.4 1485.81 Q1230.11 1485.39 1227.65 1484.54 L1227.65 1480.02 Q1229.6 1481.16 1231.91 1481.74 Q1234.23 1482.32 1236.75 1482.32 Q1241.15 1482.32 1243.44 1480.58 Q1245.75 1478.84 1245.75 1475.53 Q1245.75 1472.48 1243.6 1470.77 Q1241.47 1469.03 1237.65 1469.03 L1233.62 1469.03 L1233.62 1465.19 L1237.84 1465.19 Q1241.29 1465.19 1243.11 1463.82 Q1244.94 1462.43 1244.94 1459.84 Q1244.94 1457.18 1243.05 1455.77 Q1241.17 1454.33 1237.65 1454.33 Q1235.73 1454.33 1233.53 1454.75 Q1231.33 1455.16 1228.69 1456.04 L1228.69 1451.88 Q1231.36 1451.14 1233.67 1450.77 Q1236.01 1450.39 1238.07 1450.39 Q1243.39 1450.39 1246.49 1452.83 Q1249.6 1455.23 1249.6 1459.35 Q1249.6 1462.22 1247.95 1464.21 Q1246.31 1466.18 1243.28 1466.95 Z" fill="#000000" fill-rule="evenodd" fill-opacity="1" /><path clip-path="url(#clip480)" d="M1269.27 1454.1 Q1265.66 1454.1 1263.83 1457.66 Q1262.03 1461.2 1262.03 1468.33 Q1262.03 1475.44 1263.83 1479.01 Q1265.66 1482.55 1269.27 1482.55 Q1272.91 1482.55 1274.71 1479.01 Q1276.54 1475.44 1276.54 1468.33 Q1276.54 1461.2 1274.71 1457.66 Q1272.91 1454.1 1269.27 1454.1 M1269.27 1450.39 Q1275.08 1450.39 1278.14 1455 Q1281.22 1459.58 1281.22 1468.33 Q1281.22 1477.06 1278.14 1481.67 Q1275.08 1486.25 1269.27 1486.25 Q1263.46 1486.25 1260.38 1481.67 Q1257.33 1477.06 1257.33 1468.33 Q1257.33 1459.58 1260.38 1455 Q1263.46 1450.39 1269.27 1450.39 Z" fill="#000000" fill-rule="evenodd" fill-opacity="1" /><path clip-path="url(#clip480)" d="M1608.71 1455.09 L1596.91 1473.54 L1608.71 1473.54 L1608.71 1455.09 M1607.49 1451.02 L1613.37 1451.02 L1613.37 1473.54 L1618.3 1473.54 L1618.3 1477.43 L1613.37 1477.43 L1613.37 1485.58 L1608.71 1485.58 L1608.71 1477.43 L1593.11 1477.43 L1593.11 1472.92 L1607.49 1451.02 Z" fill="#000000" fill-rule="evenodd" fill-opacity="1" /><path clip-path="url(#clip480)" d="M1636.03 1454.1 Q1632.42 1454.1 1630.59 1457.66 Q1628.78 1461.2 1628.78 1468.33 Q1628.78 1475.44 1630.59 1479.01 Q1632.42 1482.55 1636.03 1482.55 Q1639.66 1482.55 1641.47 1479.01 Q1643.3 1475.44 1643.3 1468.33 Q1643.3 1461.2 1641.47 1457.66 Q1639.66 1454.1 1636.03 1454.1 M1636.03 1450.39 Q1641.84 1450.39 1644.89 1455 Q1647.97 1459.58 1647.97 1468.33 Q1647.97 1477.06 1644.89 1481.67 Q1641.84 1486.25 1636.03 1486.25 Q1630.22 1486.25 1627.14 1481.67 Q1624.08 1477.06 1624.08 1468.33 Q1624.08 1459.58 1627.14 1455 Q1630.22 1450.39 1636.03 1450.39 Z" fill="#000000" fill-rule="evenodd" fill-opacity="1" /><path clip-path="url(#clip480)" d="M1961.35 1451.02 L1979.7 1451.02 L1979.7 1454.96 L1965.63 1454.96 L1965.63 1463.43 Q1966.65 1463.08 1967.67 1462.92 Q1968.69 1462.73 1969.7 1462.73 Q1975.49 1462.73 1978.87 1465.9 Q1982.25 1469.08 1982.25 1474.49 Q1982.25 1480.07 1978.78 1483.17 Q1975.31 1486.25 1968.99 1486.25 Q1966.81 1486.25 1964.54 1485.88 Q1962.3 1485.51 1959.89 1484.77 L1959.89 1480.07 Q1961.97 1481.2 1964.2 1481.76 Q1966.42 1482.32 1968.89 1482.32 Q1972.9 1482.32 1975.24 1480.21 Q1977.57 1478.1 1977.57 1474.49 Q1977.57 1470.88 1975.24 1468.77 Q1972.9 1466.67 1968.89 1466.67 Q1967.02 1466.67 1965.14 1467.08 Q1963.29 1467.5 1961.35 1468.38 L1961.35 1451.02 Z" fill="#000000" fill-rule="evenodd" fill-opacity="1" /><path clip-path="url(#clip480)" d="M2001.46 1454.1 Q1997.85 1454.1 1996.02 1457.66 Q1994.22 1461.2 1994.22 1468.33 Q1994.22 1475.44 1996.02 1479.01 Q1997.85 1482.55 2001.46 1482.55 Q2005.1 1482.55 2006.9 1479.01 Q2008.73 1475.44 2008.73 1468.33 Q2008.73 1461.2 2006.9 1457.66 Q2005.1 1454.1 2001.46 1454.1 M2001.46 1450.39 Q2007.27 1450.39 2010.33 1455 Q2013.41 1459.58 2013.41 1468.33 Q2013.41 1477.06 2010.33 1481.67 Q2007.27 1486.25 2001.46 1486.25 Q1995.65 1486.25 1992.57 1481.67 Q1989.52 1477.06 1989.52 1468.33 Q1989.52 1459.58 1992.57 1455 Q1995.65 1450.39 2001.46 1450.39 Z" fill="#000000" fill-rule="evenodd" fill-opacity="1" /><path clip-path="url(#clip480)" d="M2338.16 1466.44 Q2335.01 1466.44 2333.16 1468.59 Q2331.33 1470.74 2331.33 1474.49 Q2331.33 1478.22 2333.16 1480.39 Q2335.01 1482.55 2338.16 1482.55 Q2341.31 1482.55 2343.14 1480.39 Q2344.99 1478.22 2344.99 1474.49 Q2344.99 1470.74 2343.14 1468.59 Q2341.31 1466.44 2338.16 1466.44 M2347.44 1451.78 L2347.44 1456.04 Q2345.68 1455.21 2343.88 1454.77 Q2342.1 1454.33 2340.34 1454.33 Q2335.71 1454.33 2333.25 1457.45 Q2330.82 1460.58 2330.48 1466.9 Q2331.84 1464.89 2333.9 1463.82 Q2335.96 1462.73 2338.44 1462.73 Q2343.65 1462.73 2346.66 1465.9 Q2349.69 1469.05 2349.69 1474.49 Q2349.69 1479.82 2346.54 1483.03 Q2343.39 1486.25 2338.16 1486.25 Q2332.17 1486.25 2328.99 1481.67 Q2325.82 1477.06 2325.82 1468.33 Q2325.82 1460.14 2329.71 1455.28 Q2333.6 1450.39 2340.15 1450.39 Q2341.91 1450.39 2343.69 1450.74 Q2345.5 1451.09 2347.44 1451.78 Z" fill="#000000" fill-rule="evenodd" fill-opacity="1" /><path clip-path="url(#clip480)" d="M2367.74 1454.1 Q2364.13 1454.1 2362.3 1457.66 Q2360.5 1461.2 2360.5 1468.33 Q2360.5 1475.44 2362.3 1479.01 Q2364.13 1482.55 2367.74 1482.55 Q2371.38 1482.55 2373.18 1479.01 Q2375.01 1475.44 2375.01 1468.33 Q2375.01 1461.2 2373.18 1457.66 Q2371.38 1454.1 2367.74 1454.1 M2367.74 1450.39 Q2373.55 1450.39 2376.61 1455 Q2379.69 1459.58 2379.69 1468.33 Q2379.69 1477.06 2376.61 1481.67 Q2373.55 1486.25 2367.74 1486.25 Q2361.93 1486.25 2358.86 1481.67 Q2355.8 1477.06 2355.8 1468.33 Q2355.8 1459.58 2358.86 1455 Q2361.93 1450.39 2367.74 1450.39 Z" fill="#000000" fill-rule="evenodd" fill-opacity="1" /><path clip-path="url(#clip480)" d="M1253.5 1522.27 L1253.5 1532.4 L1265.56 1532.4 L1265.56 1536.95 L1253.5 1536.95 L1253.5 1556.3 Q1253.5 1560.66 1254.67 1561.9 Q1255.88 1563.14 1259.54 1563.14 L1265.56 1563.14 L1265.56 1568.04 L1259.54 1568.04 Q1252.76 1568.04 1250.18 1565.53 Q1247.61 1562.98 1247.61 1556.3 L1247.61 1536.95 L1243.31 1536.95 L1243.31 1532.4 L1247.61 1532.4 L1247.61 1522.27 L1253.5 1522.27 Z" fill="#000000" fill-rule="evenodd" fill-opacity="1" /><polyline clip-path="url(#clip482)" style="stroke:#000000; stroke-linecap:butt; stroke-linejoin:round; stroke-width:2; stroke-opacity:0.1; fill:none" points="
  156.112,1384.24 2352.76,1384.24 
  "/>
<polyline clip-path="url(#clip482)" style="stroke:#000000; stroke-linecap:butt; stroke-linejoin:round; stroke-width:2; stroke-opacity:0.1; fill:none" points="
  156.112,946.141 2352.76,946.141 
  "/>
<polyline clip-path="url(#clip482)" style="stroke:#000000; stroke-linecap:butt; stroke-linejoin:round; stroke-width:2; stroke-opacity:0.1; fill:none" points="
  156.112,508.043 2352.76,508.043 
  "/>
<polyline clip-path="url(#clip482)" style="stroke:#000000; stroke-linecap:butt; stroke-linejoin:round; stroke-width:2; stroke-opacity:0.1; fill:none" points="
  156.112,69.9456 2352.76,69.9456 
  "/>
<polyline clip-path="url(#clip480)" style="stroke:#000000; stroke-linecap:butt; stroke-linejoin:round; stroke-width:4; stroke-opacity:1; fill:none" points="
  156.112,1423.18 156.112,47.2441 
  "/>
<polyline clip-path="url(#clip480)" style="stroke:#000000; stroke-linecap:butt; stroke-linejoin:round; stroke-width:4; stroke-opacity:1; fill:none" points="
  156.112,1384.24 175.01,1384.24 
  "/>
<polyline clip-path="url(#clip480)" style="stroke:#000000; stroke-linecap:butt; stroke-linejoin:round; stroke-width:4; stroke-opacity:1; fill:none" points="
  156.112,946.141 175.01,946.141 
  "/>
<polyline clip-path="url(#clip480)" style="stroke:#000000; stroke-linecap:butt; stroke-linejoin:round; stroke-width:4; stroke-opacity:1; fill:none" points="
  156.112,508.043 175.01,508.043 
  "/>
<polyline clip-path="url(#clip480)" style="stroke:#000000; stroke-linecap:butt; stroke-linejoin:round; stroke-width:4; stroke-opacity:1; fill:none" points="
  156.112,69.9456 175.01,69.9456 
  "/>
<path clip-path="url(#clip480)" d="M62.9365 1370.04 Q59.3254 1370.04 57.4967 1373.6 Q55.6912 1377.14 55.6912 1384.27 Q55.6912 1391.38 57.4967 1394.94 Q59.3254 1398.49 62.9365 1398.49 Q66.5707 1398.49 68.3763 1394.94 Q70.205 1391.38 70.205 1384.27 Q70.205 1377.14 68.3763 1373.6 Q66.5707 1370.04 62.9365 1370.04 M62.9365 1366.33 Q68.7467 1366.33 71.8022 1370.94 Q74.8809 1375.52 74.8809 1384.27 Q74.8809 1393 71.8022 1397.61 Q68.7467 1402.19 62.9365 1402.19 Q57.1264 1402.19 54.0477 1397.61 Q50.9921 1393 50.9921 1384.27 Q50.9921 1375.52 54.0477 1370.94 Q57.1264 1366.33 62.9365 1366.33 Z" fill="#000000" fill-rule="evenodd" fill-opacity="1" /><path clip-path="url(#clip480)" d="M83.0984 1395.64 L87.9827 1395.64 L87.9827 1401.52 L83.0984 1401.52 L83.0984 1395.64 Z" fill="#000000" fill-rule="evenodd" fill-opacity="1" /><path clip-path="url(#clip480)" d="M108.168 1370.04 Q104.557 1370.04 102.728 1373.6 Q100.922 1377.14 100.922 1384.27 Q100.922 1391.38 102.728 1394.94 Q104.557 1398.49 108.168 1398.49 Q111.802 1398.49 113.608 1394.94 Q115.436 1391.38 115.436 1384.27 Q115.436 1377.14 113.608 1373.6 Q111.802 1370.04 108.168 1370.04 M108.168 1366.33 Q113.978 1366.33 117.033 1370.94 Q120.112 1375.52 120.112 1384.27 Q120.112 1393 117.033 1397.61 Q113.978 1402.19 108.168 1402.19 Q102.358 1402.19 99.2789 1397.61 Q96.2234 1393 96.2234 1384.27 Q96.2234 1375.52 99.2789 1370.94 Q102.358 1366.33 108.168 1366.33 Z" fill="#000000" fill-rule="evenodd" fill-opacity="1" /><path clip-path="url(#clip480)" d="M63.9319 931.939 Q60.3208 931.939 58.4921 935.504 Q56.6865 939.046 56.6865 946.175 Q56.6865 953.282 58.4921 956.847 Q60.3208 960.388 63.9319 960.388 Q67.5661 960.388 69.3717 956.847 Q71.2004 953.282 71.2004 946.175 Q71.2004 939.046 69.3717 935.504 Q67.5661 931.939 63.9319 931.939 M63.9319 928.236 Q69.742 928.236 72.7976 932.842 Q75.8763 937.425 75.8763 946.175 Q75.8763 954.902 72.7976 959.509 Q69.742 964.092 63.9319 964.092 Q58.1217 964.092 55.043 959.509 Q51.9875 954.902 51.9875 946.175 Q51.9875 937.425 55.043 932.842 Q58.1217 928.236 63.9319 928.236 Z" fill="#000000" fill-rule="evenodd" fill-opacity="1" /><path clip-path="url(#clip480)" d="M84.0938 957.541 L88.978 957.541 L88.978 963.421 L84.0938 963.421 L84.0938 957.541 Z" fill="#000000" fill-rule="evenodd" fill-opacity="1" /><path clip-path="url(#clip480)" d="M99.2095 928.861 L117.566 928.861 L117.566 932.796 L103.492 932.796 L103.492 941.268 Q104.51 940.921 105.529 940.759 Q106.547 940.574 107.566 940.574 Q113.353 940.574 116.733 943.745 Q120.112 946.916 120.112 952.333 Q120.112 957.911 116.64 961.013 Q113.168 964.092 106.848 964.092 Q104.672 964.092 102.404 963.722 Q100.159 963.351 97.7511 962.611 L97.7511 957.911 Q99.8345 959.046 102.057 959.601 Q104.279 960.157 106.756 960.157 Q110.76 960.157 113.098 958.05 Q115.436 955.944 115.436 952.333 Q115.436 948.722 113.098 946.615 Q110.76 944.509 106.756 944.509 Q104.881 944.509 103.006 944.925 Q101.154 945.342 99.2095 946.222 L99.2095 928.861 Z" fill="#000000" fill-rule="evenodd" fill-opacity="1" /><path clip-path="url(#clip480)" d="M53.7467 521.388 L61.3856 521.388 L61.3856 495.022 L53.0754 496.689 L53.0754 492.43 L61.3393 490.763 L66.0152 490.763 L66.0152 521.388 L73.654 521.388 L73.654 525.323 L53.7467 525.323 L53.7467 521.388 Z" fill="#000000" fill-rule="evenodd" fill-opacity="1" /><path clip-path="url(#clip480)" d="M83.0984 519.444 L87.9827 519.444 L87.9827 525.323 L83.0984 525.323 L83.0984 519.444 Z" fill="#000000" fill-rule="evenodd" fill-opacity="1" /><path clip-path="url(#clip480)" d="M108.168 493.842 Q104.557 493.842 102.728 497.407 Q100.922 500.948 100.922 508.078 Q100.922 515.184 102.728 518.749 Q104.557 522.291 108.168 522.291 Q111.802 522.291 113.608 518.749 Q115.436 515.184 115.436 508.078 Q115.436 500.948 113.608 497.407 Q111.802 493.842 108.168 493.842 M108.168 490.138 Q113.978 490.138 117.033 494.745 Q120.112 499.328 120.112 508.078 Q120.112 516.805 117.033 521.411 Q113.978 525.994 108.168 525.994 Q102.358 525.994 99.2789 521.411 Q96.2234 516.805 96.2234 508.078 Q96.2234 499.328 99.2789 494.745 Q102.358 490.138 108.168 490.138 Z" fill="#000000" fill-rule="evenodd" fill-opacity="1" /><path clip-path="url(#clip480)" d="M54.7421 83.2905 L62.381 83.2905 L62.381 56.9249 L54.0708 58.5915 L54.0708 54.3323 L62.3347 52.6656 L67.0106 52.6656 L67.0106 83.2905 L74.6494 83.2905 L74.6494 87.2256 L54.7421 87.2256 L54.7421 83.2905 Z" fill="#000000" fill-rule="evenodd" fill-opacity="1" /><path clip-path="url(#clip480)" d="M84.0938 81.346 L88.978 81.346 L88.978 87.2256 L84.0938 87.2256 L84.0938 81.346 Z" fill="#000000" fill-rule="evenodd" fill-opacity="1" /><path clip-path="url(#clip480)" d="M99.2095 52.6656 L117.566 52.6656 L117.566 56.6008 L103.492 56.6008 L103.492 65.073 Q104.51 64.7258 105.529 64.5637 Q106.547 64.3785 107.566 64.3785 Q113.353 64.3785 116.733 67.5498 Q120.112 70.7211 120.112 76.1377 Q120.112 81.7164 116.64 84.8183 Q113.168 87.8969 106.848 87.8969 Q104.672 87.8969 102.404 87.5266 Q100.159 87.1562 97.7511 86.4155 L97.7511 81.7164 Q99.8345 82.8507 102.057 83.4062 Q104.279 83.9618 106.756 83.9618 Q110.76 83.9618 113.098 81.8553 Q115.436 79.7488 115.436 76.1377 Q115.436 72.5267 113.098 70.4202 Q110.76 68.3137 106.756 68.3137 Q104.881 68.3137 103.006 68.7304 Q101.154 69.147 99.2095 70.0267 L99.2095 52.6656 Z" fill="#000000" fill-rule="evenodd" fill-opacity="1" /><polyline clip-path="url(#clip482)" style="stroke:#009af9; stroke-linecap:butt; stroke-linejoin:round; stroke-width:4; stroke-opacity:1; fill:none" points="
  156.112,508.043 192.723,886.851 229.334,938.117 265.944,945.056 302.555,945.993 339.166,946.121 375.777,946.138 412.387,946.14 448.998,946.141 485.609,946.141 
  522.219,946.141 558.83,946.141 595.441,946.141 632.052,946.141 668.662,946.141 705.273,946.141 741.884,946.141 778.495,946.141 815.105,946.141 851.716,946.141 
  888.327,946.141 924.937,946.141 961.548,946.141 998.159,946.141 1034.77,946.141 1071.38,946.141 1107.99,946.141 1144.6,946.141 1181.21,946.141 1217.82,946.141 
  1254.43,946.141 1291.04,946.141 1327.66,946.141 1364.27,946.141 1400.88,946.141 1437.49,946.141 1474.1,946.141 1510.71,946.141 1547.32,946.141 1583.93,946.141 
  1620.54,946.141 1657.15,946.141 1693.76,946.141 1730.37,946.141 1766.98,946.141 1803.59,946.141 1840.21,946.141 1876.82,946.141 1913.43,946.141 1950.04,946.141 
  1986.65,946.141 2023.26,946.141 2059.87,946.141 2096.48,946.141 2133.09,946.141 2169.7,946.141 2206.31,946.141 2242.92,946.141 2279.53,946.141 2316.15,946.141 
  2352.76,946.141 
  "/>
<polyline clip-path="url(#clip482)" style="stroke:#e26f46; stroke-linecap:butt; stroke-linejoin:round; stroke-width:4; stroke-opacity:1; fill:none" points="
  156.112,1384.24 192.723,1031.75 229.334,1079.02 265.944,1090.15 302.555,1091.89 339.166,1092.13 375.777,1092.17 412.387,1092.17 448.998,1092.17 485.609,1092.17 
  522.219,1092.17 558.83,1092.17 595.441,1092.17 632.052,1092.17 668.662,1092.17 705.273,1092.17 741.884,1092.17 778.495,1092.17 815.105,1092.17 851.716,1092.17 
  888.327,1092.17 924.937,1092.17 961.548,1092.17 998.159,1092.17 1034.77,1092.17 1071.38,1092.17 1107.99,1092.17 1144.6,1092.17 1181.21,1092.17 1217.82,1092.17 
  1254.43,1092.17 1291.04,1092.17 1327.66,1092.17 1364.27,1092.17 1400.88,1092.17 1437.49,1092.17 1474.1,1092.17 1510.71,1092.17 1547.32,1092.17 1583.93,1092.17 
  1620.54,1092.17 1657.15,1092.17 1693.76,1092.17 1730.37,1092.17 1766.98,1092.17 1803.59,1092.17 1840.21,1092.17 1876.82,1092.17 1913.43,1092.17 1950.04,1092.17 
  1986.65,1092.17 2023.26,1092.17 2059.87,1092.17 2096.48,1092.17 2133.09,1092.17 2169.7,1092.17 2206.31,1092.17 2242.92,1092.17 2279.53,1092.17 2316.15,1092.17 
  2352.76,1092.17 
  "/>
<polyline clip-path="url(#clip482)" style="stroke:#3da44d; stroke-linecap:butt; stroke-linejoin:round; stroke-width:4; stroke-opacity:1; fill:none" points="
  156.112,1384.24 192.723,681.138 229.334,203.189 265.944,129.248 302.555,860.595 339.166,1355.61 375.777,1039.25 412.387,621.977 448.998,248.623 485.609,87.0488 
  522.219,536.264 558.83,1384.22 595.441,1147.69 632.052,741.074 668.662,342.184 705.273,95.5301 741.884,305.445 778.495,1330.06 815.105,1244.71 851.716,860.852 
  888.327,447.127 924.937,137.828 961.548,167.237 998.159,1054.6 1034.77,1324 1071.38,978.582 1107.99,559.916 1144.6,205.019 1181.21,100.189 1217.82,698.123 
  1254.43,1375.08 1291.04,1091.19 1327.66,677.553 1364.27,290.81 1400.88,86.1857 1437.49,416.553 1474.1,1375.85 1510.71,1194.91 1547.32,797.295 1583.93,390.191 
  1620.54,111.805 1657.15,231.191 1693.76,1228.46 1730.37,1284.59 1766.98,916.468 1803.59,499.211 1840.21,166.657 1876.82,127.799 1913.43,884.427 1950.04,1352.37 
  1986.65,1032.21 2023.26,614.627 2059.87,243.252 2096.48,87.7991 2133.09,553.622 2169.7,1384.03 2206.31,1141.19 2242.92,733.58 2279.53,335.974 2316.15,93.9896 
  2352.76,317.598 
  "/>
<path clip-path="url(#clip480)" d="
M1951.9 300.469 L2279.53 300.469 L2279.53 93.1086 L1951.9 93.1086  Z
  " fill="#ffffff" fill-rule="evenodd" fill-opacity="1"/>
<polyline clip-path="url(#clip480)" style="stroke:#000000; stroke-linecap:butt; stroke-linejoin:round; stroke-width:4; stroke-opacity:1; fill:none" points="
  1951.9,300.469 2279.53,300.469 2279.53,93.1086 1951.9,93.1086 1951.9,300.469 
  "/>
<polyline clip-path="url(#clip480)" style="stroke:#009af9; stroke-linecap:butt; stroke-linejoin:round; stroke-width:4; stroke-opacity:1; fill:none" points="
  1976.31,144.949 2122.75,144.949 
  "/>
<path clip-path="url(#clip480)" d="M2162.99 132.275 L2156.65 149.474 L2169.35 149.474 L2162.99 132.275 M2160.35 127.669 L2165.65 127.669 L2178.82 162.229 L2173.96 162.229 L2170.81 153.363 L2155.23 153.363 L2152.09 162.229 L2147.16 162.229 L2160.35 127.669 Z" fill="#000000" fill-rule="evenodd" fill-opacity="1" /><path clip-path="url(#clip480)" d="M2193.91 126.257 Q2190.81 131.581 2189.31 136.789 Q2187.8 141.997 2187.8 147.344 Q2187.8 152.692 2189.31 157.946 Q2190.84 163.178 2193.91 168.479 L2190.21 168.479 Q2186.74 163.039 2185 157.784 Q2183.29 152.53 2183.29 147.344 Q2183.29 142.182 2185 136.951 Q2186.72 131.72 2190.21 126.257 L2193.91 126.257 Z" fill="#000000" fill-rule="evenodd" fill-opacity="1" /><path clip-path="url(#clip480)" d="M2206.39 128.942 L2206.39 136.303 L2215.16 136.303 L2215.16 139.613 L2206.39 139.613 L2206.39 153.687 Q2206.39 156.858 2207.25 157.761 Q2208.13 158.664 2210.79 158.664 L2215.16 158.664 L2215.16 162.229 L2210.79 162.229 Q2205.86 162.229 2203.98 160.4 Q2202.11 158.548 2202.11 153.687 L2202.11 139.613 L2198.98 139.613 L2198.98 136.303 L2202.11 136.303 L2202.11 128.942 L2206.39 128.942 Z" fill="#000000" fill-rule="evenodd" fill-opacity="1" /><path clip-path="url(#clip480)" d="M2220.1 126.257 L2223.8 126.257 Q2227.27 131.72 2228.98 136.951 Q2230.72 142.182 2230.72 147.344 Q2230.72 152.53 2228.98 157.784 Q2227.27 163.039 2223.8 168.479 L2220.1 168.479 Q2223.17 163.178 2224.68 157.946 Q2226.21 152.692 2226.21 147.344 Q2226.21 141.997 2224.68 136.789 Q2223.17 131.581 2220.1 126.257 Z" fill="#000000" fill-rule="evenodd" fill-opacity="1" /><polyline clip-path="url(#clip480)" style="stroke:#e26f46; stroke-linecap:butt; stroke-linejoin:round; stroke-width:4; stroke-opacity:1; fill:none" points="
  1976.31,196.789 2122.75,196.789 
  "/>
<path clip-path="url(#clip480)" d="M2151.83 197.564 L2151.83 210.226 L2159.33 210.226 Q2163.1 210.226 2164.91 208.675 Q2166.74 207.101 2166.74 203.883 Q2166.74 200.643 2164.91 199.115 Q2163.1 197.564 2159.33 197.564 L2151.83 197.564 M2151.83 183.351 L2151.83 193.768 L2158.75 193.768 Q2162.18 193.768 2163.85 192.495 Q2165.54 191.198 2165.54 188.559 Q2165.54 185.944 2163.85 184.647 Q2162.18 183.351 2158.75 183.351 L2151.83 183.351 M2147.16 179.509 L2159.1 179.509 Q2164.45 179.509 2167.34 181.731 Q2170.23 183.953 2170.23 188.05 Q2170.23 191.222 2168.75 193.097 Q2167.27 194.971 2164.4 195.434 Q2167.85 196.175 2169.75 198.536 Q2171.67 200.874 2171.67 204.393 Q2171.67 209.022 2168.52 211.545 Q2165.37 214.069 2159.56 214.069 L2147.16 214.069 L2147.16 179.509 Z" fill="#000000" fill-rule="evenodd" fill-opacity="1" /><path clip-path="url(#clip480)" d="M2189.72 178.097 Q2186.62 183.421 2185.12 188.629 Q2183.61 193.837 2183.61 199.184 Q2183.61 204.532 2185.12 209.786 Q2186.65 215.018 2189.72 220.319 L2186.02 220.319 Q2182.55 214.879 2180.81 209.624 Q2179.1 204.37 2179.1 199.184 Q2179.1 194.022 2180.81 188.791 Q2182.53 183.56 2186.02 178.097 L2189.72 178.097 Z" fill="#000000" fill-rule="evenodd" fill-opacity="1" /><path clip-path="url(#clip480)" d="M2202.2 180.782 L2202.2 188.143 L2210.97 188.143 L2210.97 191.453 L2202.2 191.453 L2202.2 205.527 Q2202.2 208.698 2203.06 209.601 Q2203.94 210.504 2206.6 210.504 L2210.97 210.504 L2210.97 214.069 L2206.6 214.069 Q2201.67 214.069 2199.79 212.24 Q2197.92 210.388 2197.92 205.527 L2197.92 191.453 L2194.79 191.453 L2194.79 188.143 L2197.92 188.143 L2197.92 180.782 L2202.2 180.782 Z" fill="#000000" fill-rule="evenodd" fill-opacity="1" /><path clip-path="url(#clip480)" d="M2215.91 178.097 L2219.61 178.097 Q2223.08 183.56 2224.79 188.791 Q2226.53 194.022 2226.53 199.184 Q2226.53 204.37 2224.79 209.624 Q2223.08 214.879 2219.61 220.319 L2215.91 220.319 Q2218.98 215.018 2220.49 209.786 Q2222.02 204.532 2222.02 199.184 Q2222.02 193.837 2220.49 188.629 Q2218.98 183.421 2215.91 178.097 Z" fill="#000000" fill-rule="evenodd" fill-opacity="1" /><polyline clip-path="url(#clip480)" style="stroke:#3da44d; stroke-linecap:butt; stroke-linejoin:round; stroke-width:4; stroke-opacity:1; fill:none" points="
  1976.31,248.629 2122.75,248.629 
  "/>
<path clip-path="url(#clip480)" d="M2175.03 234.011 L2175.03 238.941 Q2172.66 236.742 2169.98 235.654 Q2167.32 234.566 2164.31 234.566 Q2158.38 234.566 2155.23 238.2 Q2152.09 241.812 2152.09 248.663 Q2152.09 255.492 2155.23 259.126 Q2158.38 262.737 2164.31 262.737 Q2167.32 262.737 2169.98 261.649 Q2172.66 260.561 2175.03 258.362 L2175.03 263.247 Q2172.57 264.913 2169.82 265.747 Q2167.09 266.58 2164.03 266.58 Q2156.18 266.58 2151.67 261.788 Q2147.16 256.973 2147.16 248.663 Q2147.16 240.33 2151.67 235.538 Q2156.18 230.724 2164.03 230.724 Q2167.13 230.724 2169.86 231.557 Q2172.62 232.367 2175.03 234.011 Z" fill="#000000" fill-rule="evenodd" fill-opacity="1" /><path clip-path="url(#clip480)" d="M2192.29 229.937 Q2189.19 235.261 2187.69 240.469 Q2186.18 245.677 2186.18 251.024 Q2186.18 256.372 2187.69 261.626 Q2189.22 266.858 2192.29 272.159 L2188.59 272.159 Q2185.12 266.719 2183.38 261.464 Q2181.67 256.21 2181.67 251.024 Q2181.67 245.862 2183.38 240.631 Q2185.1 235.4 2188.59 229.937 L2192.29 229.937 Z" fill="#000000" fill-rule="evenodd" fill-opacity="1" /><path clip-path="url(#clip480)" d="M2204.77 232.622 L2204.77 239.983 L2213.54 239.983 L2213.54 243.293 L2204.77 243.293 L2204.77 257.367 Q2204.77 260.538 2205.63 261.441 Q2206.51 262.344 2209.17 262.344 L2213.54 262.344 L2213.54 265.909 L2209.17 265.909 Q2204.24 265.909 2202.36 264.08 Q2200.49 262.228 2200.49 257.367 L2200.49 243.293 L2197.36 243.293 L2197.36 239.983 L2200.49 239.983 L2200.49 232.622 L2204.77 232.622 Z" fill="#000000" fill-rule="evenodd" fill-opacity="1" /><path clip-path="url(#clip480)" d="M2218.47 229.937 L2222.18 229.937 Q2225.65 235.4 2227.36 240.631 Q2229.1 245.862 2229.1 251.024 Q2229.1 256.21 2227.36 261.464 Q2225.65 266.719 2222.18 272.159 L2218.47 272.159 Q2221.55 266.858 2223.06 261.626 Q2224.59 256.372 2224.59 251.024 Q2224.59 245.677 2223.06 240.469 Q2221.55 235.261 2218.47 229.937 Z" fill="#000000" fill-rule="evenodd" fill-opacity="1" /></svg>
