<?xml version="1.0" encoding="utf-8"?>
<svg xmlns="http://www.w3.org/2000/svg" xmlns:xlink="http://www.w3.org/1999/xlink" width="600" height="400" viewBox="0 0 2400 1600">
<defs>
  <clipPath id="clip440">
    <rect x="0" y="0" width="2400" height="1600"/>
  </clipPath>
</defs>
<path clip-path="url(#clip440)" d="
M0 1600 L2400 1600 L2400 0 L0 0  Z
  " fill="#ffffff" fill-rule="evenodd" fill-opacity="1"/>
<defs>
  <clipPath id="clip441">
    <rect x="480" y="0" width="1681" height="1600"/>
  </clipPath>
</defs>
<path clip-path="url(#clip440)" d="
M186.274 1423.18 L2352.76 1423.18 L2352.76 47.2441 L186.274 47.2441  Z
  " fill="#ffffff" fill-rule="evenodd" fill-opacity="1"/>
<defs>
  <clipPath id="clip442">
    <rect x="186" y="47" width="2167" height="1377"/>
  </clipPath>
</defs>
<polyline clip-path="url(#clip442)" style="stroke:#000000; stroke-linecap:butt; stroke-linejoin:round; stroke-width:2; stroke-opacity:0.1; fill:none" points="
  186.274,1423.18 186.274,47.2441 
  "/>
<polyline clip-path="url(#clip442)" style="stroke:#000000; stroke-linecap:butt; stroke-linejoin:round; stroke-width:2; stroke-opacity:0.1; fill:none" points="
  547.354,1423.18 547.354,47.2441 
  "/>
<polyline clip-path="url(#clip442)" style="stroke:#000000; stroke-linecap:butt; stroke-linejoin:round; stroke-width:2; stroke-opacity:0.1; fill:none" points="
  908.435,1423.18 908.435,47.2441 
  "/>
<polyline clip-path="url(#clip442)" style="stroke:#000000; stroke-linecap:butt; stroke-linejoin:round; stroke-width:2; stroke-opacity:0.1; fill:none" points="
  1269.51,1423.18 1269.51,47.2441 
  "/>
<polyline clip-path="url(#clip442)" style="stroke:#000000; stroke-linecap:butt; stroke-linejoin:round; stroke-width:2; stroke-opacity:0.1; fill:none" points="
  1630.6,1423.18 1630.6,47.2441 
  "/>
<polyline clip-path="url(#clip442)" style="stroke:#000000; stroke-linecap:butt; stroke-linejoin:round; stroke-width:2; stroke-opacity:0.1; fill:none" points="
  1991.68,1423.18 1991.68,47.2441 
  "/>
<polyline clip-path="url(#clip442)" style="stroke:#000000; stroke-linecap:butt; stroke-linejoin:round; stroke-width:2; stroke-opacity:0.1; fill:none" points="
  2352.76,1423.18 2352.76,47.2441 
  "/>
<polyline clip-path="url(#clip440)" style="stroke:#000000; stroke-linecap:butt; stroke-linejoin:round; stroke-width:4; stroke-opacity:1; fill:none" points="
  186.274,1423.18 2352.76,1423.18 
  "/>
<polyline clip-path="url(#clip440)" style="stroke:#000000; stroke-linecap:butt; stroke-linejoin:round; stroke-width:4; stroke-opacity:1; fill:none" points="
  186.274,1423.18 186.274,1404.28 
  "/>
<polyline clip-path="url(#clip440)" style="stroke:#000000; stroke-linecap:butt; stroke-linejoin:round; stroke-width:4; stroke-opacity:1; fill:none" points="
  547.354,1423.18 547.354,1404.28 
  "/>
<polyline clip-path="url(#clip440)" style="stroke:#000000; stroke-linecap:butt; stroke-linejoin:round; stroke-width:4; stroke-opacity:1; fill:none" points="
  908.435,1423.18 908.435,1404.28 
  "/>
<polyline clip-path="url(#clip440)" style="stroke:#000000; stroke-linecap:butt; stroke-linejoin:round; stroke-width:4; stroke-opacity:1; fill:none" points="
  1269.51,1423.18 1269.51,1404.28 
  "/>
<polyline clip-path="url(#clip440)" style="stroke:#000000; stroke-linecap:butt; stroke-linejoin:round; stroke-width:4; stroke-opacity:1; fill:none" points="
  1630.6,1423.18 1630.6,1404.28 
  "/>
<polyline clip-path="url(#clip440)" style="stroke:#000000; stroke-linecap:butt; stroke-linejoin:round; stroke-width:4; stroke-opacity:1; fill:none" points="
  1991.68,1423.18 1991.68,1404.28 
  "/>
<polyline clip-path="url(#clip440)" style="stroke:#000000; stroke-linecap:butt; stroke-linejoin:round; stroke-width:4; stroke-opacity:1; fill:none" points="
  2352.76,1423.18 2352.76,1404.28 
  "/>
<path clip-path="url(#clip440)" d="M186.274 1454.1 Q182.663 1454.1 180.834 1457.66 Q179.029 1461.2 179.029 1468.33 Q179.029 1475.44 180.834 1479.01 Q182.663 1482.55 186.274 1482.55 Q189.908 1482.55 191.714 1479.01 Q193.542 1475.44 193.542 1468.33 Q193.542 1461.2 191.714 1457.66 Q189.908 1454.1 186.274 1454.1 M186.274 1450.39 Q192.084 1450.39 195.14 1455 Q198.218 1459.58 198.218 1468.33 Q198.218 1477.06 195.14 1481.67 Q192.084 1486.25 186.274 1486.25 Q180.464 1486.25 177.385 1481.67 Q174.33 1477.06 174.33 1468.33 Q174.33 1459.58 177.385 1455 Q180.464 1450.39 186.274 1450.39 Z" fill="#000000" fill-rule="evenodd" fill-opacity="1" /><path clip-path="url(#clip440)" d="M522.042 1481.64 L529.681 1481.64 L529.681 1455.28 L521.371 1456.95 L521.371 1452.69 L529.635 1451.02 L534.31 1451.02 L534.31 1481.64 L541.949 1481.64 L541.949 1485.58 L522.042 1485.58 L522.042 1481.64 Z" fill="#000000" fill-rule="evenodd" fill-opacity="1" /><path clip-path="url(#clip440)" d="M561.394 1454.1 Q557.783 1454.1 555.954 1457.66 Q554.148 1461.2 554.148 1468.33 Q554.148 1475.44 555.954 1479.01 Q557.783 1482.55 561.394 1482.55 Q565.028 1482.55 566.833 1479.01 Q568.662 1475.44 568.662 1468.33 Q568.662 1461.2 566.833 1457.66 Q565.028 1454.1 561.394 1454.1 M561.394 1450.39 Q567.204 1450.39 570.259 1455 Q573.338 1459.58 573.338 1468.33 Q573.338 1477.06 570.259 1481.67 Q567.204 1486.25 561.394 1486.25 Q555.583 1486.25 552.505 1481.67 Q549.449 1477.06 549.449 1468.33 Q549.449 1459.58 552.505 1455 Q555.583 1450.39 561.394 1450.39 Z" fill="#000000" fill-rule="evenodd" fill-opacity="1" /><path clip-path="url(#clip440)" d="M887.208 1481.64 L903.527 1481.64 L903.527 1485.58 L881.583 1485.58 L881.583 1481.64 Q884.245 1478.89 888.828 1474.26 Q893.435 1469.61 894.615 1468.27 Q896.861 1465.74 897.74 1464.01 Q898.643 1462.25 898.643 1460.56 Q898.643 1457.8 896.699 1456.07 Q894.777 1454.33 891.675 1454.33 Q889.476 1454.33 887.023 1455.09 Q884.592 1455.86 881.814 1457.41 L881.814 1452.69 Q884.638 1451.55 887.092 1450.97 Q889.546 1450.39 891.583 1450.39 Q896.953 1450.39 900.148 1453.08 Q903.342 1455.77 903.342 1460.26 Q903.342 1462.39 902.532 1464.31 Q901.745 1466.2 899.638 1468.8 Q899.06 1469.47 895.958 1472.69 Q892.856 1475.88 887.208 1481.64 Z" fill="#000000" fill-rule="evenodd" fill-opacity="1" /><path clip-path="url(#clip440)" d="M923.342 1454.1 Q919.731 1454.1 917.902 1457.66 Q916.097 1461.2 916.097 1468.33 Q916.097 1475.44 917.902 1479.01 Q919.731 1482.55 923.342 1482.55 Q926.976 1482.55 928.782 1479.01 Q930.61 1475.44 930.61 1468.33 Q930.61 1461.2 928.782 1457.66 Q926.976 1454.1 923.342 1454.1 M923.342 1450.39 Q929.152 1450.39 932.208 1455 Q935.286 1459.58 935.286 1468.33 Q935.286 1477.06 932.208 1481.67 Q929.152 1486.25 923.342 1486.25 Q917.532 1486.25 914.453 1481.67 Q911.398 1477.06 911.398 1468.33 Q911.398 1459.58 914.453 1455 Q917.532 1450.39 923.342 1450.39 Z" fill="#000000" fill-rule="evenodd" fill-opacity="1" /><path clip-path="url(#clip440)" d="M1258.36 1466.95 Q1261.71 1467.66 1263.59 1469.93 Q1265.49 1472.2 1265.49 1475.53 Q1265.49 1480.65 1261.97 1483.45 Q1258.45 1486.25 1251.97 1486.25 Q1249.79 1486.25 1247.48 1485.81 Q1245.19 1485.39 1242.73 1484.54 L1242.73 1480.02 Q1244.68 1481.16 1246.99 1481.74 Q1249.31 1482.32 1251.83 1482.32 Q1256.23 1482.32 1258.52 1480.58 Q1260.83 1478.84 1260.83 1475.53 Q1260.83 1472.48 1258.68 1470.77 Q1256.55 1469.03 1252.73 1469.03 L1248.7 1469.03 L1248.7 1465.19 L1252.92 1465.19 Q1256.37 1465.19 1258.2 1463.82 Q1260.02 1462.43 1260.02 1459.84 Q1260.02 1457.18 1258.13 1455.77 Q1256.25 1454.33 1252.73 1454.33 Q1250.81 1454.33 1248.61 1454.75 Q1246.41 1455.16 1243.77 1456.04 L1243.77 1451.88 Q1246.44 1451.14 1248.75 1450.77 Q1251.09 1450.39 1253.15 1450.39 Q1258.47 1450.39 1261.58 1452.83 Q1264.68 1455.23 1264.68 1459.35 Q1264.68 1462.22 1263.03 1464.21 Q1261.39 1466.18 1258.36 1466.95 Z" fill="#000000" fill-rule="evenodd" fill-opacity="1" /><path clip-path="url(#clip440)" d="M1284.35 1454.1 Q1280.74 1454.1 1278.91 1457.66 Q1277.11 1461.2 1277.11 1468.33 Q1277.11 1475.44 1278.91 1479.01 Q1280.74 1482.55 1284.35 1482.55 Q1287.99 1482.55 1289.79 1479.01 Q1291.62 1475.44 1291.62 1468.33 Q1291.62 1461.2 1289.79 1457.66 Q1287.99 1454.1 1284.35 1454.1 M1284.35 1450.39 Q1290.16 1450.39 1293.22 1455 Q1296.3 1459.58 1296.3 1468.33 Q1296.3 1477.06 1293.22 1481.67 Q1290.16 1486.25 1284.35 1486.25 Q1278.54 1486.25 1275.46 1481.67 Q1272.41 1477.06 1272.41 1468.33 Q1272.41 1459.58 1275.46 1455 Q1278.54 1450.39 1284.35 1450.39 Z" fill="#000000" fill-rule="evenodd" fill-opacity="1" /><path clip-path="url(#clip440)" d="M1618.77 1455.09 L1606.96 1473.54 L1618.77 1473.54 L1618.77 1455.09 M1617.54 1451.02 L1623.42 1451.02 L1623.42 1473.54 L1628.35 1473.54 L1628.35 1477.43 L1623.42 1477.43 L1623.42 1485.58 L1618.77 1485.58 L1618.77 1477.43 L1603.16 1477.43 L1603.16 1472.92 L1617.54 1451.02 Z" fill="#000000" fill-rule="evenodd" fill-opacity="1" /><path clip-path="url(#clip440)" d="M1646.08 1454.1 Q1642.47 1454.1 1640.64 1457.66 Q1638.84 1461.2 1638.84 1468.33 Q1638.84 1475.44 1640.64 1479.01 Q1642.47 1482.55 1646.08 1482.55 Q1649.72 1482.55 1651.52 1479.01 Q1653.35 1475.44 1653.35 1468.33 Q1653.35 1461.2 1651.52 1457.66 Q1649.72 1454.1 1646.08 1454.1 M1646.08 1450.39 Q1651.89 1450.39 1654.95 1455 Q1658.03 1459.58 1658.03 1468.33 Q1658.03 1477.06 1654.95 1481.67 Q1651.89 1486.25 1646.08 1486.25 Q1640.27 1486.25 1637.19 1481.67 Q1634.14 1477.06 1634.14 1468.33 Q1634.14 1459.58 1637.19 1455 Q1640.27 1450.39 1646.08 1450.39 Z" fill="#000000" fill-rule="evenodd" fill-opacity="1" /><path clip-path="url(#clip440)" d="M1966.37 1451.02 L1984.73 1451.02 L1984.73 1454.96 L1970.66 1454.96 L1970.66 1463.43 Q1971.68 1463.08 1972.69 1462.92 Q1973.71 1462.73 1974.73 1462.73 Q1980.52 1462.73 1983.9 1465.9 Q1987.28 1469.08 1987.28 1474.49 Q1987.28 1480.07 1983.81 1483.17 Q1980.33 1486.25 1974.01 1486.25 Q1971.84 1486.25 1969.57 1485.88 Q1967.32 1485.51 1964.92 1484.77 L1964.92 1480.07 Q1967 1481.2 1969.22 1481.76 Q1971.44 1482.32 1973.92 1482.32 Q1977.93 1482.32 1980.26 1480.21 Q1982.6 1478.1 1982.6 1474.49 Q1982.6 1470.88 1980.26 1468.77 Q1977.93 1466.67 1973.92 1466.67 Q1972.05 1466.67 1970.17 1467.08 Q1968.32 1467.5 1966.37 1468.38 L1966.37 1451.02 Z" fill="#000000" fill-rule="evenodd" fill-opacity="1" /><path clip-path="url(#clip440)" d="M2006.49 1454.1 Q2002.88 1454.1 2001.05 1457.66 Q1999.24 1461.2 1999.24 1468.33 Q1999.24 1475.44 2001.05 1479.01 Q2002.88 1482.55 2006.49 1482.55 Q2010.12 1482.55 2011.93 1479.01 Q2013.76 1475.44 2013.76 1468.33 Q2013.76 1461.2 2011.93 1457.66 Q2010.12 1454.1 2006.49 1454.1 M2006.49 1450.39 Q2012.3 1450.39 2015.36 1455 Q2018.43 1459.58 2018.43 1468.33 Q2018.43 1477.06 2015.36 1481.67 Q2012.3 1486.25 2006.49 1486.25 Q2000.68 1486.25 1997.6 1481.67 Q1994.55 1477.06 1994.55 1468.33 Q1994.55 1459.58 1997.6 1455 Q2000.68 1450.39 2006.49 1450.39 Z" fill="#000000" fill-rule="evenodd" fill-opacity="1" /><path clip-path="url(#clip440)" d="M2338.16 1466.44 Q2335.01 1466.44 2333.16 1468.59 Q2331.33 1470.74 2331.33 1474.49 Q2331.33 1478.22 2333.16 1480.39 Q2335.01 1482.55 2338.16 1482.55 Q2341.31 1482.55 2343.14 1480.39 Q2344.99 1478.22 2344.99 1474.49 Q2344.99 1470.74 2343.14 1468.59 Q2341.31 1466.44 2338.16 1466.44 M2347.44 1451.78 L2347.44 1456.04 Q2345.68 1455.21 2343.88 1454.77 Q2342.1 1454.33 2340.34 1454.33 Q2335.71 1454.33 2333.25 1457.45 Q2330.82 1460.58 2330.48 1466.9 Q2331.84 1464.89 2333.9 1463.82 Q2335.96 1462.73 2338.44 1462.73 Q2343.65 1462.73 2346.66 1465.9 Q2349.69 1469.05 2349.69 1474.49 Q2349.69 1479.82 2346.54 1483.03 Q2343.39 1486.25 2338.16 1486.25 Q2332.17 1486.25 2328.99 1481.67 Q2325.82 1477.06 2325.82 1468.33 Q2325.82 1460.14 2329.71 1455.28 Q2333.6 1450.39 2340.15 1450.39 Q2341.91 1450.39 2343.69 1450.74 Q2345.5 1451.09 2347.44 1451.78 Z" fill="#000000" fill-rule="evenodd" fill-opacity="1" /><path clip-path="url(#clip440)" d="M2367.74 1454.1 Q2364.13 1454.1 2362.3 1457.66 Q2360.5 1461.2 2360.5 1468.33 Q2360.5 1475.44 2362.3 1479.01 Q2364.13 1482.55 2367.74 1482.55 Q2371.38 1482.55 2373.18 1479.01 Q2375.01 1475.44 2375.01 1468.33 Q2375.01 1461.2 2373.18 1457.66 Q2371.38 1454.1 2367.74 1454.1 M2367.74 1450.39 Q2373.55 1450.39 2376.61 1455 Q2379.69 1459.58 2379.69 1468.33 Q2379.69 1477.06 2376.61 1481.67 Q2373.55 1486.25 2367.74 1486.25 Q2361.93 1486.25 2358.86 1481.67 Q2355.8 1477.06 2355.8 1468.33 Q2355.8 1459.58 2358.86 1455 Q2361.93 1450.39 2367.74 1450.39 Z" fill="#000000" fill-rule="evenodd" fill-opacity="1" /><path clip-path="url(#clip440)" d="M1268.58 1522.27 L1268.58 1532.4 L1280.64 1532.4 L1280.64 1536.95 L1268.58 1536.95 L1268.58 1556.3 Q1268.58 1560.66 1269.75 1561.9 Q1270.96 1563.14 1274.62 1563.14 L1280.64 1563.14 L1280.64 1568.04 L1274.62 1568.04 Q1267.84 1568.04 1265.27 1565.53 Q1262.69 1562.98 1262.69 1556.3 L1262.69 1536.95 L1258.39 1536.95 L1258.39 1532.4 L1262.69 1532.4 L1262.69 1522.27 L1268.58 1522.27 Z" fill="#000000" fill-rule="evenodd" fill-opacity="1" /><polyline clip-path="url(#clip442)" style="stroke:#000000; stroke-linecap:butt; stroke-linejoin:round; stroke-width:2; stroke-opacity:0.1; fill:none" points="
  186.274,1384.24 2352.76,1384.24 
  "/>
<polyline clip-path="url(#clip442)" style="stroke:#000000; stroke-linecap:butt; stroke-linejoin:round; stroke-width:2; stroke-opacity:0.1; fill:none" points="
  186.274,1059.73 2352.76,1059.73 
  "/>
<polyline clip-path="url(#clip442)" style="stroke:#000000; stroke-linecap:butt; stroke-linejoin:round; stroke-width:2; stroke-opacity:0.1; fill:none" points="
  186.274,735.212 2352.76,735.212 
  "/>
<polyline clip-path="url(#clip442)" style="stroke:#000000; stroke-linecap:butt; stroke-linejoin:round; stroke-width:2; stroke-opacity:0.1; fill:none" points="
  186.274,410.699 2352.76,410.699 
  "/>
<polyline clip-path="url(#clip442)" style="stroke:#000000; stroke-linecap:butt; stroke-linejoin:round; stroke-width:2; stroke-opacity:0.1; fill:none" points="
  186.274,86.1857 2352.76,86.1857 
  "/>
<polyline clip-path="url(#clip440)" style="stroke:#000000; stroke-linecap:butt; stroke-linejoin:round; stroke-width:4; stroke-opacity:1; fill:none" points="
  186.274,1423.18 186.274,47.2441 
  "/>
<polyline clip-path="url(#clip440)" style="stroke:#000000; stroke-linecap:butt; stroke-linejoin:round; stroke-width:4; stroke-opacity:1; fill:none" points="
  186.274,1384.24 205.172,1384.24 
  "/>
<polyline clip-path="url(#clip440)" style="stroke:#000000; stroke-linecap:butt; stroke-linejoin:round; stroke-width:4; stroke-opacity:1; fill:none" points="
  186.274,1059.73 205.172,1059.73 
  "/>
<polyline clip-path="url(#clip440)" style="stroke:#000000; stroke-linecap:butt; stroke-linejoin:round; stroke-width:4; stroke-opacity:1; fill:none" points="
  186.274,735.212 205.172,735.212 
  "/>
<polyline clip-path="url(#clip440)" style="stroke:#000000; stroke-linecap:butt; stroke-linejoin:round; stroke-width:4; stroke-opacity:1; fill:none" points="
  186.274,410.699 205.172,410.699 
  "/>
<polyline clip-path="url(#clip440)" style="stroke:#000000; stroke-linecap:butt; stroke-linejoin:round; stroke-width:4; stroke-opacity:1; fill:none" points="
  186.274,86.1857 205.172,86.1857 
  "/>
<path clip-path="url(#clip440)" d="M62.9365 1370.04 Q59.3254 1370.04 57.4967 1373.6 Q55.6912 1377.14 55.6912 1384.27 Q55.6912 1391.38 57.4967 1394.94 Q59.3254 1398.49 62.9365 1398.49 Q66.5707 1398.49 68.3763 1394.94 Q70.205 1391.38 70.205 1384.27 Q70.205 1377.14 68.3763 1373.6 Q66.5707 1370.04 62.9365 1370.04 M62.9365 1366.33 Q68.7467 1366.33 71.8022 1370.94 Q74.8809 1375.52 74.8809 1384.27 Q74.8809 1393 71.8022 1397.61 Q68.7467 1402.19 62.9365 1402.19 Q57.1264 1402.19 54.0477 1397.61 Q50.9921 1393 50.9921 1384.27 Q50.9921 1375.52 54.0477 1370.94 Q57.1264 1366.33 62.9365 1366.33 Z" fill="#000000" fill-rule="evenodd" fill-opacity="1" /><path clip-path="url(#clip440)" d="M83.0984 1395.64 L87.9827 1395.64 L87.9827 1401.52 L83.0984 1401.52 L83.0984 1395.64 Z" fill="#000000" fill-rule="evenodd" fill-opacity="1" /><path clip-path="url(#clip440)" d="M108.168 1370.04 Q104.557 1370.04 102.728 1373.6 Q100.922 1377.14 100.922 1384.27 Q100.922 1391.38 102.728 1394.94 Q104.557 1398.49 108.168 1398.49 Q111.802 1398.49 113.608 1394.94 Q115.436 1391.38 115.436 1384.27 Q115.436 1377.14 113.608 1373.6 Q111.802 1370.04 108.168 1370.04 M108.168 1366.33 Q113.978 1366.33 117.033 1370.94 Q120.112 1375.52 120.112 1384.27 Q120.112 1393 117.033 1397.61 Q113.978 1402.19 108.168 1402.19 Q102.358 1402.19 99.2789 1397.61 Q96.2234 1393 96.2234 1384.27 Q96.2234 1375.52 99.2789 1370.94 Q102.358 1366.33 108.168 1366.33 Z" fill="#000000" fill-rule="evenodd" fill-opacity="1" /><path clip-path="url(#clip440)" d="M138.33 1370.04 Q134.719 1370.04 132.89 1373.6 Q131.084 1377.14 131.084 1384.27 Q131.084 1391.38 132.89 1394.94 Q134.719 1398.49 138.33 1398.49 Q141.964 1398.49 143.769 1394.94 Q145.598 1391.38 145.598 1384.27 Q145.598 1377.14 143.769 1373.6 Q141.964 1370.04 138.33 1370.04 M138.33 1366.33 Q144.14 1366.33 147.195 1370.94 Q150.274 1375.52 150.274 1384.27 Q150.274 1393 147.195 1397.61 Q144.14 1402.19 138.33 1402.19 Q132.519 1402.19 129.441 1397.61 Q126.385 1393 126.385 1384.27 Q126.385 1375.52 129.441 1370.94 Q132.519 1366.33 138.33 1366.33 Z" fill="#000000" fill-rule="evenodd" fill-opacity="1" /><path clip-path="url(#clip440)" d="M63.9319 1045.52 Q60.3208 1045.52 58.4921 1049.09 Q56.6865 1052.63 56.6865 1059.76 Q56.6865 1066.87 58.4921 1070.43 Q60.3208 1073.97 63.9319 1073.97 Q67.5661 1073.97 69.3717 1070.43 Q71.2004 1066.87 71.2004 1059.76 Q71.2004 1052.63 69.3717 1049.09 Q67.5661 1045.52 63.9319 1045.52 M63.9319 1041.82 Q69.742 1041.82 72.7976 1046.43 Q75.8763 1051.01 75.8763 1059.76 Q75.8763 1068.49 72.7976 1073.09 Q69.742 1077.68 63.9319 1077.68 Q58.1217 1077.68 55.043 1073.09 Q51.9875 1068.49 51.9875 1059.76 Q51.9875 1051.01 55.043 1046.43 Q58.1217 1041.82 63.9319 1041.82 Z" fill="#000000" fill-rule="evenodd" fill-opacity="1" /><path clip-path="url(#clip440)" d="M84.0938 1071.13 L88.978 1071.13 L88.978 1077.01 L84.0938 1077.01 L84.0938 1071.13 Z" fill="#000000" fill-rule="evenodd" fill-opacity="1" /><path clip-path="url(#clip440)" d="M103.191 1073.07 L119.51 1073.07 L119.51 1077.01 L97.566 1077.01 L97.566 1073.07 Q100.228 1070.32 104.811 1065.69 Q109.418 1061.03 110.598 1059.69 Q112.844 1057.17 113.723 1055.43 Q114.626 1053.67 114.626 1051.98 Q114.626 1049.23 112.682 1047.49 Q110.76 1045.76 107.658 1045.76 Q105.459 1045.76 103.006 1046.52 Q100.575 1047.28 97.7974 1048.83 L97.7974 1044.11 Q100.621 1042.98 103.075 1042.4 Q105.529 1041.82 107.566 1041.82 Q112.936 1041.82 116.131 1044.51 Q119.325 1047.19 119.325 1051.68 Q119.325 1053.81 118.515 1055.73 Q117.728 1057.63 115.621 1060.22 Q115.043 1060.89 111.941 1064.11 Q108.839 1067.31 103.191 1073.07 Z" fill="#000000" fill-rule="evenodd" fill-opacity="1" /><path clip-path="url(#clip440)" d="M129.371 1042.45 L147.728 1042.45 L147.728 1046.38 L133.654 1046.38 L133.654 1054.85 Q134.672 1054.51 135.691 1054.34 Q136.709 1054.16 137.728 1054.16 Q143.515 1054.16 146.894 1057.33 Q150.274 1060.5 150.274 1065.92 Q150.274 1071.5 146.802 1074.6 Q143.33 1077.68 137.01 1077.68 Q134.834 1077.68 132.566 1077.31 Q130.32 1076.94 127.913 1076.19 L127.913 1071.5 Q129.996 1072.63 132.219 1073.19 Q134.441 1073.74 136.918 1073.74 Q140.922 1073.74 143.26 1071.63 Q145.598 1069.53 145.598 1065.92 Q145.598 1062.31 143.26 1060.2 Q140.922 1058.09 136.918 1058.09 Q135.043 1058.09 133.168 1058.51 Q131.316 1058.93 129.371 1059.81 L129.371 1042.45 Z" fill="#000000" fill-rule="evenodd" fill-opacity="1" /><path clip-path="url(#clip440)" d="M62.9365 721.011 Q59.3254 721.011 57.4967 724.575 Q55.6912 728.117 55.6912 735.247 Q55.6912 742.353 57.4967 745.918 Q59.3254 749.46 62.9365 749.46 Q66.5707 749.46 68.3763 745.918 Q70.205 742.353 70.205 735.247 Q70.205 728.117 68.3763 724.575 Q66.5707 721.011 62.9365 721.011 M62.9365 717.307 Q68.7467 717.307 71.8022 721.913 Q74.8809 726.497 74.8809 735.247 Q74.8809 743.973 71.8022 748.58 Q68.7467 753.163 62.9365 753.163 Q57.1264 753.163 54.0477 748.58 Q50.9921 743.973 50.9921 735.247 Q50.9921 726.497 54.0477 721.913 Q57.1264 717.307 62.9365 717.307 Z" fill="#000000" fill-rule="evenodd" fill-opacity="1" /><path clip-path="url(#clip440)" d="M83.0984 746.612 L87.9827 746.612 L87.9827 752.492 L83.0984 752.492 L83.0984 746.612 Z" fill="#000000" fill-rule="evenodd" fill-opacity="1" /><path clip-path="url(#clip440)" d="M98.2141 717.932 L116.57 717.932 L116.57 721.867 L102.496 721.867 L102.496 730.339 Q103.515 729.992 104.534 729.83 Q105.552 729.645 106.571 729.645 Q112.358 729.645 115.737 732.816 Q119.117 735.987 119.117 741.404 Q119.117 746.983 115.645 750.085 Q112.172 753.163 105.853 753.163 Q103.677 753.163 101.409 752.793 Q99.1632 752.423 96.7558 751.682 L96.7558 746.983 Q98.8391 748.117 101.061 748.673 Q103.284 749.228 105.76 749.228 Q109.765 749.228 112.103 747.122 Q114.441 745.015 114.441 741.404 Q114.441 737.793 112.103 735.687 Q109.765 733.58 105.76 733.58 Q103.885 733.58 102.01 733.997 Q100.159 734.413 98.2141 735.293 L98.2141 717.932 Z" fill="#000000" fill-rule="evenodd" fill-opacity="1" /><path clip-path="url(#clip440)" d="M138.33 721.011 Q134.719 721.011 132.89 724.575 Q131.084 728.117 131.084 735.247 Q131.084 742.353 132.89 745.918 Q134.719 749.46 138.33 749.46 Q141.964 749.46 143.769 745.918 Q145.598 742.353 145.598 735.247 Q145.598 728.117 143.769 724.575 Q141.964 721.011 138.33 721.011 M138.33 717.307 Q144.14 717.307 147.195 721.913 Q150.274 726.497 150.274 735.247 Q150.274 743.973 147.195 748.58 Q144.14 753.163 138.33 753.163 Q132.519 753.163 129.441 748.58 Q126.385 743.973 126.385 735.247 Q126.385 726.497 129.441 721.913 Q132.519 717.307 138.33 717.307 Z" fill="#000000" fill-rule="evenodd" fill-opacity="1" /><path clip-path="url(#clip440)" d="M63.9319 396.498 Q60.3208 396.498 58.4921 400.062 Q56.6865 403.604 56.6865 410.734 Q56.6865 417.84 58.4921 421.405 Q60.3208 424.946 63.9319 424.946 Q67.5661 424.946 69.3717 421.405 Q71.2004 417.84 71.2004 410.734 Q71.2004 403.604 69.3717 400.062 Q67.5661 396.498 63.9319 396.498 M63.9319 392.794 Q69.742 392.794 72.7976 397.4 Q75.8763 401.984 75.8763 410.734 Q75.8763 419.46 72.7976 424.067 Q69.742 428.65 63.9319 428.65 Q58.1217 428.65 55.043 424.067 Q51.9875 419.46 51.9875 410.734 Q51.9875 401.984 55.043 397.4 Q58.1217 392.794 63.9319 392.794 Z" fill="#000000" fill-rule="evenodd" fill-opacity="1" /><path clip-path="url(#clip440)" d="M84.0938 422.099 L88.978 422.099 L88.978 427.979 L84.0938 427.979 L84.0938 422.099 Z" fill="#000000" fill-rule="evenodd" fill-opacity="1" /><path clip-path="url(#clip440)" d="M97.9826 393.419 L120.205 393.419 L120.205 395.41 L107.658 427.979 L102.774 427.979 L114.58 397.354 L97.9826 397.354 L97.9826 393.419 Z" fill="#000000" fill-rule="evenodd" fill-opacity="1" /><path clip-path="url(#clip440)" d="M129.371 393.419 L147.728 393.419 L147.728 397.354 L133.654 397.354 L133.654 405.826 Q134.672 405.479 135.691 405.317 Q136.709 405.132 137.728 405.132 Q143.515 405.132 146.894 408.303 Q150.274 411.474 150.274 416.891 Q150.274 422.47 146.802 425.571 Q143.33 428.65 137.01 428.65 Q134.834 428.65 132.566 428.28 Q130.32 427.909 127.913 427.169 L127.913 422.47 Q129.996 423.604 132.219 424.159 Q134.441 424.715 136.918 424.715 Q140.922 424.715 143.26 422.608 Q145.598 420.502 145.598 416.891 Q145.598 413.28 143.26 411.173 Q140.922 409.067 136.918 409.067 Q135.043 409.067 133.168 409.484 Q131.316 409.9 129.371 410.78 L129.371 393.419 Z" fill="#000000" fill-rule="evenodd" fill-opacity="1" /><path clip-path="url(#clip440)" d="M53.7467 99.5305 L61.3856 99.5305 L61.3856 73.1649 L53.0754 74.8316 L53.0754 70.5723 L61.3393 68.9057 L66.0152 68.9057 L66.0152 99.5305 L73.654 99.5305 L73.654 103.466 L53.7467 103.466 L53.7467 99.5305 Z" fill="#000000" fill-rule="evenodd" fill-opacity="1" /><path clip-path="url(#clip440)" d="M83.0984 97.5861 L87.9827 97.5861 L87.9827 103.466 L83.0984 103.466 L83.0984 97.5861 Z" fill="#000000" fill-rule="evenodd" fill-opacity="1" /><path clip-path="url(#clip440)" d="M108.168 71.9844 Q104.557 71.9844 102.728 75.5492 Q100.922 79.0908 100.922 86.2204 Q100.922 93.3268 102.728 96.8916 Q104.557 100.433 108.168 100.433 Q111.802 100.433 113.608 96.8916 Q115.436 93.3268 115.436 86.2204 Q115.436 79.0908 113.608 75.5492 Q111.802 71.9844 108.168 71.9844 M108.168 68.2807 Q113.978 68.2807 117.033 72.8871 Q120.112 77.4704 120.112 86.2204 Q120.112 94.9472 117.033 99.5537 Q113.978 104.137 108.168 104.137 Q102.358 104.137 99.2789 99.5537 Q96.2234 94.9472 96.2234 86.2204 Q96.2234 77.4704 99.2789 72.8871 Q102.358 68.2807 108.168 68.2807 Z" fill="#000000" fill-rule="evenodd" fill-opacity="1" /><path clip-path="url(#clip440)" d="M138.33 71.9844 Q134.719 71.9844 132.89 75.5492 Q131.084 79.0908 131.084 86.2204 Q131.084 93.3268 132.89 96.8916 Q134.719 100.433 138.33 100.433 Q141.964 100.433 143.769 96.8916 Q145.598 93.3268 145.598 86.2204 Q145.598 79.0908 143.769 75.5492 Q141.964 71.9844 138.33 71.9844 M138.33 68.2807 Q144.14 68.2807 147.195 72.8871 Q150.274 77.4704 150.274 86.2204 Q150.274 94.9472 147.195 99.5537 Q144.14 104.137 138.33 104.137 Q132.519 104.137 129.441 99.5537 Q126.385 94.9472 126.385 86.2204 Q126.385 77.4704 129.441 72.8871 Q132.519 68.2807 138.33 68.2807 Z" fill="#000000" fill-rule="evenodd" fill-opacity="1" /><polyline clip-path="url(#clip442)" style="stroke:#009af9; stroke-linecap:butt; stroke-linejoin:round; stroke-width:4; stroke-opacity:1; fill:none" points="
  186.274,86.1857 222.382,647.376 258.49,723.325 294.598,733.605 330.706,734.991 366.814,735.181 402.922,735.207 439.03,735.211 475.138,735.212 511.246,735.212 
  547.354,735.212 583.462,735.212 619.57,735.212 655.678,735.212 691.786,735.212 727.894,735.212 764.003,735.212 800.111,735.212 836.219,735.212 872.327,735.212 
  908.435,735.212 944.543,735.212 980.651,735.212 1016.76,735.212 1052.87,735.212 1088.97,735.212 1125.08,735.212 1161.19,735.212 1197.3,735.212 1233.41,735.212 
  1269.51,735.212 1305.62,735.212 1341.73,735.212 1377.84,735.212 1413.95,735.212 1450.06,735.212 1486.16,735.212 1522.27,735.212 1558.38,735.212 1594.49,735.212 
  1630.6,735.212 1666.7,735.212 1702.81,735.212 1738.92,735.212 1775.03,735.212 1811.14,735.212 1847.24,735.212 1883.35,735.212 1919.46,735.212 1955.57,735.212 
  1991.68,735.212 2027.78,735.212 2063.89,735.212 2100,735.212 2136.11,735.212 2172.22,735.212 2208.32,735.212 2244.43,735.212 2280.54,735.212 2316.65,735.212 
  2352.76,735.212 
  "/>
<polyline clip-path="url(#clip442)" style="stroke:#e26f46; stroke-linecap:butt; stroke-linejoin:round; stroke-width:4; stroke-opacity:1; fill:none" points="
  186.274,1384.24 222.382,862.051 258.49,932.07 294.598,948.551 330.706,951.128 366.814,951.494 402.922,951.545 439.03,951.553 475.138,951.554 511.246,951.554 
  547.354,951.554 583.462,951.554 619.57,951.554 655.678,951.554 691.786,951.554 727.894,951.554 764.003,951.554 800.111,951.554 836.219,951.554 872.327,951.554 
  908.435,951.554 944.543,951.554 980.651,951.554 1016.76,951.554 1052.87,951.554 1088.97,951.554 1125.08,951.554 1161.19,951.554 1197.3,951.554 1233.41,951.554 
  1269.51,951.554 1305.62,951.554 1341.73,951.554 1377.84,951.554 1413.95,951.554 1450.06,951.554 1486.16,951.554 1522.27,951.554 1558.38,951.554 1594.49,951.554 
  1630.6,951.554 1666.7,951.554 1702.81,951.554 1738.92,951.554 1775.03,951.554 1811.14,951.554 1847.24,951.554 1883.35,951.554 1919.46,951.554 1955.57,951.554 
  1991.68,951.554 2027.78,951.554 2063.89,951.554 2100,951.554 2136.11,951.554 2172.22,951.554 2208.32,951.554 2244.43,951.554 2280.54,951.554 2316.65,951.554 
  2352.76,951.554 
  "/>
<polyline clip-path="url(#clip442)" style="stroke:#3da44d; stroke-linecap:butt; stroke-linejoin:round; stroke-width:4; stroke-opacity:1; fill:none" points="
  186.274,1384.24 222.382,1001.23 258.49,1035.95 294.598,1055.52 330.706,1059.11 366.814,1059.64 402.922,1059.72 439.03,1059.67 475.138,1059.58 511.246,1059.51 
  547.354,1059.27 583.462,1059.63 619.57,1059.82 655.678,1059.81 691.786,1059.74 727.894,1059.64 764.003,1059.56 800.111,1059.77 836.219,1059.75 872.327,1059.71 
  908.435,1059.72 944.543,1059.73 980.651,1059.73 1016.76,1059.72 1052.87,1059.72 1088.97,1059.72 1125.08,1059.73 1161.19,1059.73 1197.3,1059.73 1233.41,1059.73 
  1269.51,1059.73 1305.62,1059.73 1341.73,1059.73 1377.84,1059.73 1413.95,1059.73 1450.06,1059.73 1486.16,1059.73 1522.27,1059.73 1558.38,1059.73 1594.49,1059.73 
  1630.6,1059.73 1666.7,1059.73 1702.81,1059.73 1738.92,1059.73 1775.03,1059.73 1811.14,1059.73 1847.24,1059.73 1883.35,1059.73 1919.46,1059.73 1955.57,1059.73 
  1991.68,1059.73 2027.78,1059.73 2063.89,1059.73 2100,1059.73 2136.11,1059.73 2172.22,1059.73 2208.32,1059.73 2244.43,1059.73 2280.54,1059.73 2316.65,1059.73 
  2352.76,1059.73 
  "/>
<path clip-path="url(#clip440)" d="
M1956.26 300.469 L2280.54 300.469 L2280.54 93.1086 L1956.26 93.1086  Z
  " fill="#ffffff" fill-rule="evenodd" fill-opacity="1"/>
<polyline clip-path="url(#clip440)" style="stroke:#000000; stroke-linecap:butt; stroke-linejoin:round; stroke-width:4; stroke-opacity:1; fill:none" points="
  1956.26,300.469 2280.54,300.469 2280.54,93.1086 1956.26,93.1086 1956.26,300.469 
  "/>
<polyline clip-path="url(#clip440)" style="stroke:#009af9; stroke-linecap:butt; stroke-linejoin:round; stroke-width:4; stroke-opacity:1; fill:none" points="
  1980.33,144.949 2124.76,144.949 
  "/>
<path clip-path="url(#clip440)" d="M2164.66 132.275 L2158.32 149.474 L2171.03 149.474 L2164.66 132.275 M2162.03 127.669 L2167.33 127.669 L2180.5 162.229 L2175.64 162.229 L2172.49 153.363 L2156.91 153.363 L2153.76 162.229 L2148.83 162.229 L2162.03 127.669 Z" fill="#000000" fill-rule="evenodd" fill-opacity="1" /><path clip-path="url(#clip440)" d="M2195.59 126.257 Q2192.49 131.581 2190.98 136.789 Q2189.48 141.997 2189.48 147.344 Q2189.48 152.692 2190.98 157.946 Q2192.51 163.178 2195.59 168.479 L2191.89 168.479 Q2188.41 163.039 2186.68 157.784 Q2184.97 152.53 2184.97 147.344 Q2184.97 142.182 2186.68 136.951 Q2188.39 131.72 2191.89 126.257 L2195.59 126.257 Z" fill="#000000" fill-rule="evenodd" fill-opacity="1" /><path clip-path="url(#clip440)" d="M2208.07 128.942 L2208.07 136.303 L2216.84 136.303 L2216.84 139.613 L2208.07 139.613 L2208.07 153.687 Q2208.07 156.858 2208.92 157.761 Q2209.8 158.664 2212.47 158.664 L2216.84 158.664 L2216.84 162.229 L2212.47 162.229 Q2207.53 162.229 2205.66 160.4 Q2203.78 158.548 2203.78 153.687 L2203.78 139.613 L2200.66 139.613 L2200.66 136.303 L2203.78 136.303 L2203.78 128.942 L2208.07 128.942 Z" fill="#000000" fill-rule="evenodd" fill-opacity="1" /><path clip-path="url(#clip440)" d="M2221.77 126.257 L2225.47 126.257 Q2228.95 131.72 2230.66 136.951 Q2232.4 142.182 2232.4 147.344 Q2232.4 152.53 2230.66 157.784 Q2228.95 163.039 2225.47 168.479 L2221.77 168.479 Q2224.85 163.178 2226.35 157.946 Q2227.88 152.692 2227.88 147.344 Q2227.88 141.997 2226.35 136.789 Q2224.85 131.581 2221.77 126.257 Z" fill="#000000" fill-rule="evenodd" fill-opacity="1" /><polyline clip-path="url(#clip440)" style="stroke:#e26f46; stroke-linecap:butt; stroke-linejoin:round; stroke-width:4; stroke-opacity:1; fill:none" points="
  1980.33,196.789 2124.76,196.789 
  "/>
<path clip-path="url(#clip440)" d="M2153.51 197.564 L2153.51 210.226 L2161.01 210.226 Q2164.78 210.226 2166.59 208.675 Q2168.41 207.101 2168.41 203.883 Q2168.41 200.643 2166.59 199.115 Q2164.78 197.564 2161.01 197.564 L2153.51 197.564 M2153.51 183.351 L2153.51 193.768 L2160.43 193.768 Q2163.85 193.768 2165.52 192.495 Q2167.21 191.198 2167.21 188.559 Q2167.21 185.944 2165.52 184.647 Q2163.85 183.351 2160.43 183.351 L2153.51 183.351 M2148.83 179.509 L2160.78 179.509 Q2166.12 179.509 2169.02 181.731 Q2171.91 183.953 2171.91 188.05 Q2171.91 191.222 2170.43 193.097 Q2168.95 194.971 2166.08 195.434 Q2169.53 196.175 2171.42 198.536 Q2173.35 200.874 2173.35 204.393 Q2173.35 209.022 2170.2 211.545 Q2167.05 214.069 2161.24 214.069 L2148.83 214.069 L2148.83 179.509 Z" fill="#000000" fill-rule="evenodd" fill-opacity="1" /><path clip-path="url(#clip440)" d="M2191.4 178.097 Q2188.3 183.421 2186.79 188.629 Q2185.29 193.837 2185.29 199.184 Q2185.29 204.532 2186.79 209.786 Q2188.32 215.018 2191.4 220.319 L2187.7 220.319 Q2184.22 214.879 2182.49 209.624 Q2180.78 204.37 2180.78 199.184 Q2180.78 194.022 2182.49 188.791 Q2184.2 183.56 2187.7 178.097 L2191.4 178.097 Z" fill="#000000" fill-rule="evenodd" fill-opacity="1" /><path clip-path="url(#clip440)" d="M2203.88 180.782 L2203.88 188.143 L2212.65 188.143 L2212.65 191.453 L2203.88 191.453 L2203.88 205.527 Q2203.88 208.698 2204.73 209.601 Q2205.61 210.504 2208.28 210.504 L2212.65 210.504 L2212.65 214.069 L2208.28 214.069 Q2203.35 214.069 2201.47 212.24 Q2199.6 210.388 2199.6 205.527 L2199.6 191.453 L2196.47 191.453 L2196.47 188.143 L2199.6 188.143 L2199.6 180.782 L2203.88 180.782 Z" fill="#000000" fill-rule="evenodd" fill-opacity="1" /><path clip-path="url(#clip440)" d="M2217.58 178.097 L2221.28 178.097 Q2224.76 183.56 2226.47 188.791 Q2228.21 194.022 2228.21 199.184 Q2228.21 204.37 2226.47 209.624 Q2224.76 214.879 2221.28 220.319 L2217.58 220.319 Q2220.66 215.018 2222.16 209.786 Q2223.69 204.532 2223.69 199.184 Q2223.69 193.837 2222.16 188.629 Q2220.66 183.421 2217.58 178.097 Z" fill="#000000" fill-rule="evenodd" fill-opacity="1" /><polyline clip-path="url(#clip440)" style="stroke:#3da44d; stroke-linecap:butt; stroke-linejoin:round; stroke-width:4; stroke-opacity:1; fill:none" points="
  1980.33,248.629 2124.76,248.629 
  "/>
<path clip-path="url(#clip440)" d="M2176.7 234.011 L2176.7 238.941 Q2174.34 236.742 2171.66 235.654 Q2168.99 234.566 2165.98 234.566 Q2160.06 234.566 2156.91 238.2 Q2153.76 241.812 2153.76 248.663 Q2153.76 255.492 2156.91 259.126 Q2160.06 262.737 2165.98 262.737 Q2168.99 262.737 2171.66 261.649 Q2174.34 260.561 2176.7 258.362 L2176.7 263.247 Q2174.25 264.913 2171.49 265.747 Q2168.76 266.58 2165.71 266.58 Q2157.86 266.58 2153.35 261.788 Q2148.83 256.973 2148.83 248.663 Q2148.83 240.33 2153.35 235.538 Q2157.86 230.724 2165.71 230.724 Q2168.81 230.724 2171.54 231.557 Q2174.29 232.367 2176.7 234.011 Z" fill="#000000" fill-rule="evenodd" fill-opacity="1" /><path clip-path="url(#clip440)" d="M2193.97 229.937 Q2190.87 235.261 2189.36 240.469 Q2187.86 245.677 2187.86 251.024 Q2187.86 256.372 2189.36 261.626 Q2190.89 266.858 2193.97 272.159 L2190.27 272.159 Q2186.79 266.719 2185.06 261.464 Q2183.35 256.21 2183.35 251.024 Q2183.35 245.862 2185.06 240.631 Q2186.77 235.4 2190.27 229.937 L2193.97 229.937 Z" fill="#000000" fill-rule="evenodd" fill-opacity="1" /><path clip-path="url(#clip440)" d="M2206.45 232.622 L2206.45 239.983 L2215.22 239.983 L2215.22 243.293 L2206.45 243.293 L2206.45 257.367 Q2206.45 260.538 2207.3 261.441 Q2208.18 262.344 2210.84 262.344 L2215.22 262.344 L2215.22 265.909 L2210.84 265.909 Q2205.91 265.909 2204.04 264.08 Q2202.16 262.228 2202.16 257.367 L2202.16 243.293 L2199.04 243.293 L2199.04 239.983 L2202.16 239.983 L2202.16 232.622 L2206.45 232.622 Z" fill="#000000" fill-rule="evenodd" fill-opacity="1" /><path clip-path="url(#clip440)" d="M2220.15 229.937 L2223.85 229.937 Q2227.33 235.4 2229.04 240.631 Q2230.78 245.862 2230.78 251.024 Q2230.78 256.21 2229.04 261.464 Q2227.33 266.719 2223.85 272.159 L2220.15 272.159 Q2223.23 266.858 2224.73 261.626 Q2226.26 256.372 2226.26 251.024 Q2226.26 245.677 2224.73 240.469 Q2223.23 235.261 2220.15 229.937 Z" fill="#000000" fill-rule="evenodd" fill-opacity="1" /></svg>
